<svg width="140" height="70" viewBox="0 0 140 70" fill="none" xmlns="http://www.w3.org/2000/svg">
<g clip-path="url(#clip0)">
<path d="M11.8352 57.7133L5.78173 43.98H3.97266L10.9741 59.792H12.6223L19.6281 43.98H17.9321L11.8352 57.7133Z" fill="#1D1D1B"/>
<path d="M23.7598 52.4731H31.9354V51.051H23.7598V45.4238H32.9313V43.98H22.0898V59.792H33.2705V58.3482H23.7598V52.4731Z" fill="#1D1D1B"/>
<path d="M46.9559 56.8088L36.7711 43.98H35.3926V59.792H37.0625V46.9632L47.2299 59.792H48.6041V43.98H46.9559V56.8088Z" fill="#1D1D1B"/>
<path d="M56.5587 58.5182C54.48 58.5182 52.4709 57.705 51.3403 56.5961L50.6836 57.9007C51.8578 59.1183 54.1843 59.9533 56.5587 59.9533C60.5987 59.9533 62.4513 57.9659 62.4513 55.6393C62.4513 49.8816 52.7188 52.4995 52.7188 48.1639C52.7188 46.5809 54.0234 45.2937 56.8979 45.2937C58.4417 45.3086 59.9496 45.7609 61.2467 46.5983L61.812 45.2676C60.3494 44.3338 58.6461 43.8471 56.911 43.8673C52.8884 43.8673 51.0793 45.8764 51.0793 48.216C51.0793 54.0694 60.8162 51.4037 60.8162 55.7394C60.8031 57.2745 59.5159 58.5182 56.5587 58.5182Z" fill="#1D1D1B"/>
<path d="M64.2324 45.4238H69.7901V59.792H71.4601V45.4238H77.0178V43.98H64.2324V45.4238Z" fill="#1D1D1B"/>
<path d="M81.1543 52.4731H89.3299V51.051H81.1543V45.4238H90.3258V43.98H79.4844V59.792H90.665V58.3482H81.1543V52.4731Z" fill="#1D1D1B"/>
<path d="M94.457 43.98H92.7871V59.792H103.311V58.3482H94.457V43.98Z" fill="#1D1D1B"/>
<path d="M107.448 43.98H105.773V59.792H116.302V58.3482H107.448V43.98Z" fill="#1D1D1B"/>
<path d="M51.1085 40.5804L49.666 43.0215L50.4522 43.4861L51.8947 41.045L51.1085 40.5804Z" fill="#1D1D1B"/>
<path d="M61.8644 31.1037L73.2364 3.3501H70.962L61.934 25.5722L54.8673 3.3501H53.2322H50.5664L58.8638 31.1037H61.8644Z" fill="#1D1D1B"/>
<path d="M64.186 31.1037L73.5053 7.95541L83.4422 31.1037H87.4344L75.2492 3.3501H73.3227L61.9551 31.1037H64.186Z" fill="#1D1D1B"/>
<path d="M127.637 43.98H125.989L118.762 59.792H120.501L126.803 45.7195L133.104 59.792H134.865L127.637 43.98Z" fill="#1D1D1B"/>
<path d="M56.6874 64.3498C56.6874 64.0715 56.9223 63.841 57.4615 63.841C57.7703 63.8439 58.0719 63.9343 58.3312 64.1019L58.4835 63.7366C58.1758 63.5454 57.8193 63.4472 57.4572 63.4539C56.6178 63.4539 56.2352 63.8888 56.2352 64.3672C56.2352 65.5544 58.1703 65.0586 58.1703 65.8414C58.1703 66.1154 57.9312 66.3328 57.3789 66.3328C56.9959 66.3349 56.624 66.2043 56.3265 65.9632L56.1699 66.311C56.5169 66.582 56.9475 66.7235 57.3876 66.7111C58.2312 66.7111 58.6226 66.2763 58.6226 65.8022C58.6183 64.6411 56.6874 65.1282 56.6874 64.3498Z" fill="black"/>
<path d="M59.6988 63.4541H59.2422V66.6461H59.6988V63.4541Z" fill="black"/>
<path d="M62.6937 65.8329L60.7759 63.4541H60.4062V66.6461H60.8585V64.2673L62.7763 66.6461H63.146V63.4541H62.6937V65.8329Z" fill="black"/>
<path d="M65.3825 63.8235C65.5507 63.82 65.7178 63.8518 65.8729 63.917C66.0279 63.9822 66.1676 64.0792 66.2827 64.2019L66.5784 63.9148C66.4232 63.7506 66.2346 63.6214 66.0254 63.5359C65.8161 63.4504 65.591 63.4106 65.3652 63.4191C64.9326 63.4191 64.5178 63.5909 64.212 63.8967C63.9062 64.2026 63.7344 64.6174 63.7344 65.0499C63.7344 65.4824 63.9062 65.8972 64.212 66.203C64.5178 66.5088 64.9326 66.6806 65.3652 66.6806C65.5921 66.6898 65.8184 66.6499 66.0286 66.5636C66.2387 66.4773 66.4278 66.3466 66.5828 66.1805L66.2871 65.8935C66.1728 66.0176 66.0335 66.1159 65.8782 66.1819C65.723 66.2479 65.5555 66.28 65.3869 66.2762C65.0616 66.2762 64.7497 66.147 64.5197 65.917C64.2898 65.687 64.1605 65.3751 64.1605 65.0499C64.1605 64.7246 64.2898 64.4127 64.5197 64.1827C64.7497 63.9527 65.0616 63.8235 65.3869 63.8235H65.3825Z" fill="black"/>
<path d="M67.5738 65.2197H69.1741V64.8327H67.5738V63.8542H69.3698V63.4541H67.1172V66.6461H69.4307V66.2503H67.5738V65.2197Z" fill="black"/>
<path d="M73.2527 65.3195C73.4104 65.2024 73.5396 65.0513 73.6307 64.8774C73.7218 64.7034 73.7725 64.5112 73.7789 64.3149C73.7789 63.7713 73.344 63.4452 72.683 63.4452C72.4652 63.4344 72.2476 63.4721 72.0461 63.5556C71.8445 63.639 71.664 63.7662 71.5176 63.9279L71.8263 64.1975C71.9264 64.0802 72.0523 63.9877 72.1942 63.9273C72.336 63.8669 72.49 63.8403 72.6439 63.8496C73.0788 63.8496 73.3223 64.0496 73.3223 64.3801C73.3223 64.5802 73.2571 64.7802 72.9222 65.1107L71.6176 66.3632V66.6719H73.9094V66.2762H72.2612L73.2527 65.3195Z" fill="black"/>
<path d="M75.6835 63.4277C74.9356 63.4277 74.3789 64.0192 74.3789 65.0585C74.3789 66.0978 74.9356 66.6893 75.6835 66.6893C76.4315 66.6893 76.9882 66.0978 76.9882 65.0585C76.9882 64.0192 76.4272 63.4277 75.6835 63.4277ZM75.6835 66.2848C75.1791 66.2848 74.8138 65.8761 74.8138 65.0585C74.8138 64.2409 75.1573 63.8322 75.6835 63.8322C76.2097 63.8322 76.5272 64.2453 76.5272 65.0585C76.5272 65.8717 76.175 66.2848 75.6835 66.2848Z" fill="black"/>
<path d="M78.8281 63.4277C78.0801 63.4277 77.5234 64.0192 77.5234 65.0585C77.5234 66.0978 78.0801 66.6893 78.8281 66.6893C79.576 66.6893 80.1327 66.0978 80.1327 65.0585C80.1327 64.0192 79.5673 63.4277 78.8281 63.4277ZM78.8281 66.2848C78.3236 66.2848 77.98 65.8761 77.98 65.0585C77.98 64.2409 78.3236 63.8322 78.8281 63.8322C79.3325 63.8322 79.6674 64.2453 79.6674 65.0585C79.6674 65.8717 79.3238 66.2848 78.8281 66.2848Z" fill="black"/>
<path d="M81.9062 63.4277C81.1582 63.4277 80.6016 64.0192 80.6016 65.0585C80.6016 66.0978 81.1582 66.6893 81.9062 66.6893C82.6542 66.6893 83.2108 66.0978 83.2108 65.0585C83.2108 64.0192 82.6498 63.4277 81.9062 63.4277ZM81.9062 66.2848C81.4061 66.2848 81.0364 65.8761 81.0364 65.0585C81.0364 64.2409 81.3843 63.8322 81.9062 63.8322C82.428 63.8322 82.7498 64.2453 82.7498 65.0585C82.7498 65.8717 82.4019 66.2848 81.9062 66.2848Z" fill="black"/>
<path d="M84.8203 64.7847V65.2587H88.3124V65.0238H84.9638H88.3124V64.7847H84.8203Z" fill="black"/>
<path d="M50.6484 65.0238H53.8752H50.6484V65.2587H54.1361V64.7847H50.6484V65.0238Z" fill="black"/>
<path d="M74.4361 0.588379C73.5664 3.4542 72.5575 6.27219 71.5138 9.07277C71.005 10.4774 70.4527 11.8647 69.9178 13.2606L68.2566 17.4224L66.5171 21.558C65.917 22.9279 65.3429 24.3021 64.7211 25.6632C63.5034 28.3942 62.2423 31.1035 60.8594 33.7649C61.7291 30.8991 62.738 28.0811 63.7774 25.2762C64.2862 23.8715 64.8428 22.4843 65.3734 21.0883L67.0389 16.9309L68.7784 12.7953C69.3786 11.4254 69.9569 10.0512 70.5744 8.69008C71.8269 5.96342 73.075 3.25416 74.4361 0.588379Z" fill="white"/>
</g>
<defs>
<clipPath id="clip0">
<rect width="139.232" height="69" fill="white" transform="translate(0 0.5)"/>
</clipPath>
</defs>
</svg>
