<svg width="20" height="20" viewBox="0 0 20 20" fill="none" xmlns="http://www.w3.org/2000/svg">
<path d="M9.95855 18.2001C10.0708 18.3147 10.2236 18.3784 10.3836 18.3784C10.5436 18.3784 10.6965 18.3147 10.8087 18.2001L18.4461 10.4641C20.429 8.45631 20.429 5.18794 18.4461 3.17933C17.4828 2.20367 16.202 1.6665 14.8384 1.6665C13.4747 1.6665 12.1947 2.20367 11.2314 3.17853L10.3836 4.038L9.53584 3.17933C8.57262 2.20367 7.29177 1.6665 5.92892 1.6665C4.56529 1.6665 3.28444 2.20367 2.32121 3.17933C0.338242 5.18794 0.338242 8.45631 2.32121 10.4633L9.95855 18.2001ZM3.1706 4.01731C3.90775 3.27164 4.88769 2.86021 5.92813 2.86021C6.96937 2.86021 7.94851 3.27164 8.68486 4.01811L9.95775 5.30731C10.1814 5.53411 10.5834 5.53411 10.8071 5.30731L12.08 4.01731C12.8188 3.27164 13.7979 2.86021 14.8384 2.86021C15.8796 2.86021 16.8587 3.27164 17.5959 4.01731C19.1219 5.56356 19.1219 8.0791 17.5959 9.62614L10.3836 16.9324L3.1706 9.62535C1.64457 8.07989 1.64457 5.56356 3.1706 4.01731Z" fill="#515151"/>
</svg>
