<svg width="25" height="24" viewBox="0 0 25 24" fill="none" xmlns="http://www.w3.org/2000/svg">
<g clip-path="url(#clip0)">
<path d="M14.905 16.1103C13.434 17.2536 11.5828 17.793 9.72829 17.6186C7.87378 17.4442 6.15543 16.5691 4.92312 15.1717C3.69081 13.7742 3.0372 11.9593 3.09537 10.0966C3.15355 8.23384 3.91914 6.46334 5.23626 5.14555C6.55337 3.82776 8.32298 3.06178 10.1848 3.00358C12.0465 2.94537 13.8605 3.59931 15.2573 4.83225C16.654 6.06519 17.5286 7.78442 17.7029 9.63987C17.8772 11.4953 17.3382 13.3475 16.1955 14.8192L21.0918 19.6997L19.7922 21L14.9142 16.1103H14.905ZM10.4205 15.8173C11.1416 15.8173 11.8557 15.6752 12.5219 15.3991C13.1881 15.123 13.7935 14.7183 14.3034 14.2082C14.8133 13.698 15.2178 13.0923 15.4938 12.4258C15.7697 11.7592 15.9117 11.0448 15.9117 10.3233C15.9117 9.60181 15.7697 8.88739 15.4938 8.22083C15.2178 7.55426 14.8133 6.94861 14.3034 6.43844C13.7935 5.92828 13.1881 5.52359 12.5219 5.24749C11.8557 4.97139 11.1416 4.82928 10.4205 4.82928C8.96416 4.82928 7.56745 5.40811 6.53764 6.43844C5.50784 7.46877 4.9293 8.86619 4.9293 10.3233C4.9293 11.7804 5.50784 13.1778 6.53764 14.2082C7.56745 15.2385 8.96416 15.8173 10.4205 15.8173Z" fill="#333333"/>
</g>
<defs>
<clipPath id="clip0">
<rect width="24" height="24" fill="white" transform="translate(0.0917969)"/>
</clipPath>
</defs>
</svg>
