<svg width="20" height="20" viewBox="0 0 20 20" fill="none" xmlns="http://www.w3.org/2000/svg">
<path d="M18.2786 16.6945L17.2903 7.09785C17.2495 6.69992 16.9142 6.39746 16.5142 6.39746H3.51034C3.1114 6.39746 2.7764 6.69891 2.73452 7.09578L1.71968 16.6971C1.63593 17.535 1.91526 18.3772 2.48585 19.0078C3.05648 19.638 3.86585 19.9998 4.70667 19.9998H15.3181C16.155 19.9998 16.9569 19.6453 17.5171 19.0266C18.0851 18.4006 18.3626 17.5517 18.2786 16.6945ZM16.3616 17.9787C16.0921 18.2757 15.7215 18.4393 15.3181 18.4393H4.70694C4.30616 18.4393 3.91839 18.2648 3.64296 17.9605C3.36753 17.6562 3.23257 17.2523 3.2721 16.8568L4.21253 7.9582H15.8102L16.7262 16.8511C16.7678 17.2732 16.638 17.6737 16.3616 17.9787Z" fill="#515151"/>
<path d="M10.1433 0C7.67672 0 5.66992 2.00676 5.66992 4.47336V7.17816H7.23039V4.47336C7.23039 2.86711 8.53704 1.56047 10.1433 1.56047C11.7495 1.56047 13.0564 2.86711 13.0564 4.47336V7.17816H14.6166V4.47336C14.6167 2.00676 12.6099 0 10.1433 0Z" fill="#515151"/>
</svg>
