<svg width="44" height="44" viewBox="0 0 44 44" fill="none" xmlns="http://www.w3.org/2000/svg">
<rect width="44" height="44" rx="6" fill="#27AE60"/>
<path d="M31.442 25.9432C30.9311 25.6919 28.3856 24.4984 27.9121 24.3369C27.4386 24.1664 27.0917 24.0856 26.7495 24.5881C26.4026 25.0862 25.4182 26.1944 25.1088 26.5309C24.8088 26.863 24.504 26.9033 23.9931 26.6566C20.9554 25.2028 18.963 24.0632 16.9613 20.7743C16.4316 19.8993 17.491 19.9622 18.4802 18.0732C18.6489 17.7412 18.5646 17.4585 18.4333 17.2072C18.302 16.956 17.2707 14.5241 16.8394 13.5325C16.4222 12.5678 15.9909 12.7024 15.6769 12.6845C15.3768 12.6665 15.0346 12.6665 14.6877 12.6665C14.3408 12.6665 13.783 12.7921 13.3095 13.2812C12.836 13.7792 11.5 14.9772 11.5 17.4091C11.5 19.841 13.3517 22.1966 13.6048 22.5286C13.8674 22.8607 17.2473 27.8501 22.4367 29.9993C25.7182 31.3543 27.0027 31.471 28.6434 31.2377C29.6419 31.0941 31.6999 30.0442 32.1265 28.8821C32.553 27.7244 32.553 26.7328 32.4265 26.5265C32.2999 26.3066 31.953 26.181 31.442 25.9432Z" fill="white"/>
</svg>
