<svg width="44" height="44" viewBox="0 0 44 44" fill="none" xmlns="http://www.w3.org/2000/svg">
<rect width="44" height="44" rx="6" fill="#25D366"/>
<path d="M28.1914 24.8667C27.8721 24.7026 26.2812 23.9233 25.9854 23.8179C25.6895 23.7065 25.4727 23.6538 25.2588 23.9819C25.042 24.3071 24.4268 25.0308 24.2334 25.2505C24.0459 25.4673 23.8555 25.4937 23.5361 25.3325C21.6377 24.3833 20.3926 23.6392 19.1416 21.4917C18.8105 20.9204 19.4727 20.9614 20.0908 19.728C20.1963 19.5112 20.1436 19.3267 20.0615 19.1626C19.9795 18.9985 19.335 17.4106 19.0654 16.7632C18.8047 16.1333 18.5352 16.2212 18.3389 16.2095C18.1514 16.1978 17.9375 16.1978 17.7207 16.1978C17.5039 16.1978 17.1553 16.2798 16.8594 16.5991C16.5635 16.9243 15.7285 17.7065 15.7285 19.2944C15.7285 20.8823 16.8857 22.4204 17.0439 22.6372C17.208 22.854 19.3203 26.1118 22.5635 27.5151C24.6143 28.3999 25.417 28.4761 26.4424 28.3237C27.0664 28.23 28.3525 27.5444 28.6191 26.7856C28.8857 26.0298 28.8857 25.3823 28.8066 25.2476C28.7275 25.104 28.5107 25.022 28.1914 24.8667Z" fill="white"/>
<path d="M34.3967 17.2056C33.7345 15.6323 32.7853 14.2202 31.5754 13.0073C30.3654 11.7974 28.9533 10.8452 27.3771 10.186C25.7658 9.50928 24.0549 9.1665 22.2912 9.1665H22.2326C20.4572 9.17529 18.7375 9.52686 17.1203 10.2183C15.5588 10.8862 14.1584 11.8354 12.9601 13.0454C11.7619 14.2554 10.8215 15.6616 10.1711 17.229C9.49724 18.8521 9.15739 20.5776 9.16618 22.353C9.17497 24.3862 9.6613 26.4048 10.5724 28.2095V32.6626C10.5724 33.4067 11.1759 34.0103 11.9201 34.0103H16.3761C18.1808 34.9214 20.1994 35.4077 22.2326 35.4165H22.2941C24.049 35.4165 25.7511 35.0767 27.3537 34.4116C28.9211 33.7583 30.3302 32.8208 31.5373 31.6226C32.7472 30.4243 33.6994 29.0239 34.3644 27.4624C35.0558 25.8452 35.4074 24.1255 35.4162 22.3501C35.425 20.5659 35.0793 18.8345 34.3967 17.2056ZM29.9699 30.0376C27.9162 32.0708 25.1916 33.1899 22.2912 33.1899H22.2414C20.4748 33.1812 18.7199 32.7417 17.1701 31.9155L16.924 31.7837H12.799V27.6587L12.6672 27.4126C11.841 25.8628 11.4015 24.1079 11.3927 22.3413C11.381 19.4204 12.4972 16.6782 14.5451 14.6128C16.59 12.5474 19.3234 11.4048 22.2443 11.3931H22.2941C23.759 11.3931 25.1799 11.6772 26.5187 12.2397C27.8254 12.7876 28.9972 13.5757 30.0051 14.5835C31.0099 15.5884 31.8009 16.7632 32.3488 18.0698C32.9172 19.4233 33.2013 20.8589 33.1955 22.3413C33.1779 25.2593 32.0324 27.9927 29.9699 30.0376Z" fill="white"/>
</svg>
