<svg width="44" height="44" viewBox="0 0 44 44" fill="none" xmlns="http://www.w3.org/2000/svg">
<path d="M23.6508 22.0002L30.9913 14.6595C31.4473 14.2038 31.4473 13.4644 30.9913 13.0087C30.5352 12.5527 29.7967 12.5527 29.3406 13.0087L22.0002 20.3495L14.6594 13.0087C14.2033 12.5527 13.4647 12.5527 13.0087 13.0087C12.5526 13.4644 12.5526 14.2038 13.0087 14.6595L20.3495 22.0002L13.0087 29.341C12.5526 29.7966 12.5526 30.536 13.0087 30.9917C13.2367 31.2193 13.5356 31.3334 13.834 31.3334C14.1325 31.3334 14.4313 31.2193 14.6594 30.9913L22.0002 23.6506L29.3406 30.9913C29.5686 31.2193 29.8675 31.3334 30.166 31.3334C30.4644 31.3334 30.7633 31.2193 30.9913 30.9913C31.4473 30.5356 31.4473 29.7963 30.9913 29.3406L23.6508 22.0002Z" fill="white"/>
</svg>
