<svg width="44" height="44" viewBox="0 0 44 44" fill="none" xmlns="http://www.w3.org/2000/svg">
<path d="M30.4445 9.33331H13.5556C11.2274 9.33331 9.33334 11.2927 9.33334 13.7011V24.1839C9.33334 26.5923 11.2274 28.5517 13.5556 28.5517H15.2445V33.7931C15.2445 34.1464 15.4501 34.4649 15.7655 34.6003C15.8702 34.6448 15.98 34.6666 16.0889 34.6666C16.3089 34.6666 16.5242 34.578 16.6859 34.4107L22.3496 28.5517H30.4445C32.7726 28.5517 34.6667 26.5923 34.6667 24.1839V13.7011C34.6667 11.2927 32.7726 9.33331 30.4445 9.33331ZM25.5889 19.6644H15.2445C14.7783 19.6644 14.4 19.4247 14.4 18.9425C14.4 18.4603 14.7783 18.2206 15.2445 18.2206H25.5889C26.055 18.2206 26.4333 18.4603 26.4333 18.9425C26.4333 19.4247 26.055 19.6644 25.5889 19.6644ZM28.7556 16.1701H15.2445C14.7783 16.1701 14.4 15.9305 14.4 15.4483C14.4 14.966 14.7783 14.7264 15.2445 14.7264H28.7556C29.2217 14.7264 29.6 14.966 29.6 15.4483C29.6 15.9305 29.2217 16.1701 28.7556 16.1701Z" fill="white"/>
</svg>
