<svg width="44" height="44" viewBox="0 0 44 44" fill="none" xmlns="http://www.w3.org/2000/svg">
<path d="M22.3878 12.7212C22.1739 12.4938 21.8271 12.4938 21.6132 12.7212L9.56193 25.5382C9.45886 25.6475 9.40093 25.7959 9.40088 25.9507L9.40088 30.8657C9.40088 31.4062 9.40088 31.4493 9.94771 31.4493C10.2332 31.4493 10.1023 31.5124 10.3365 31.2782L22 18.8725L33.6635 31.2782C34.1442 31.7589 33.9757 31.7417 34.4382 31.2792C34.6589 31.0585 34.5991 31.1465 34.5991 30.8657C34.5991 30.5849 34.5991 25.9507 34.5991 25.9507C34.5994 25.796 34.5419 25.6476 34.4392 25.5382L22.3878 12.7212Z" fill="white"/>
</svg>
